<?xml version="1.0" encoding="utf-8"?>
<!-- Generator: Adobe Illustrator 14.0.0, SVG Export Plug-In . SVG Version: 6.00 Build 43363)  -->
<!DOCTYPE svg PUBLIC "-//W3C//DTD SVG 1.1//EN" "http://www.w3.org/Graphics/SVG/1.1/DTD/svg11.dtd">
<svg version="1.1" id="Layer_1" xmlns="http://www.w3.org/2000/svg" xmlns:xlink="http://www.w3.org/1999/xlink" x="0px" y="0px"
	 width="841.89px" height="595.28px" viewBox="0 0 841.89 595.28" enable-background="new 0 0 841.89 595.28" xml:space="preserve">
<path fill-rule="evenodd" clip-rule="evenodd" fill="#1A171B" d="M320.833,360.954c1.594-8.772,2.923-17.862,4.838-27.591
	c-5.158-0.319-10.686-0.319-15.896-0.319C314.984,340.86,318.545,350.588,320.833,360.954z M169.321,290.515
	c0,25.571,3.403,50.345,9.781,73.894c-18.287,11.219-42.529,32.961-53.639,71.717c-19.884,69.268,9.142,148.427,9.142,148.427
	s41.626-98.03,97.127-104.994l9.303-1.171c50.771,56.62,124.188,92.185,205.843,92.185c153.317,0,277.612-125.411,277.612-280.057
	S600.196,10.458,446.878,10.458S169.321,135.868,169.321,290.515z M407.752,409.276c-1.329,5.159-5.528,7.445-10.419,7.445
	c-6.487,0-13.93-4.839-13.93-12.655c0-8.081,6.804-46.674,11.377-71.023c-12.335,0.319-25.625,0.69-39.235,0.69
	c-8.133,34.342-14.62,63.529-16.214,74.907c-0.69,5.155-5.528,7.442-10.739,7.442c-7.122,0-14.884-4.2-14.884-12.016
	c0-17.49,8.717-44.388-20.148-71.662l-17.171-1.275c-8.719-0.639-13.29-5.209-13.29-9.729c0-4.891,4.891-9.729,13.926-9.729
	c8.455,0,15.896,3.243,22.064,8.719c9.726,0.372,19.455,0.372,28.865,0.372c7.442-39.923,17.49-84.314,32.109-125.833
	c2.287-6.168,7.442-8.772,13.29-8.772c8.136,0,16.533,5.21,16.533,11.059c0,6.113-19.456,64.484-31.098,122.856l38.543-1.914
	c7.813-38.596,17.861-80.116,30.832-124.878c1.594-5.155,7.762-7.442,13.93-7.442c7.813,0,15.894,3.562,15.894,10.048
	c0,6.803-19.456,67.143-30.143,120.624c7.442-0.319,13.929-0.639,19.458-0.639c2.871,0,5.422,0.107,7.707,0.372
	c4.254-19.775,9.41-41.094,14.62-60.337c1.648-5.529,6.806-8.455,12.974-8.455c8.132,0,16.903,5.529,16.903,16.535
	c0,17.171-26.952,95.317-26.952,120.305c0,6.803,1.648,10.685,5.848,10.685c12.014,0,29.823-39.233,33.384-46.355
	c1.968-3.562,3.936-5.529,5.529-5.529c1.275,0,2.287,1.329,2.287,3.242c0,1.649-0.319,3.243-1.329,5.529
	c-4.519,11.377-23.338,64.539-50.558,64.539c-12.651,0-23.338-9.09-23.338-33.387c0-9.833,3.138-30.036,7.922-53.691
	c-6.274,0.903-15.204,1.701-28.016,2.445L407.752,409.276z M487.814,232.514c-10.048,0-14.619-7.122-14.619-15.522
	c0-13.98,11.375-32.109,29.184-32.109c13.345,0,19.139,7.761,19.139,16.854C521.518,215.343,508.227,232.514,487.814,232.514z
	 M537.412,417.677c-10.685,0-19.775-5.794-19.775-18.126c0-13.61,11.323-29.825,29.185-29.825c13.29,0,18.819,8.399,18.819,18.129
	C565.641,401.464,554.583,417.677,537.412,417.677z M559.793,341.496c-1.646,4.838-4.891,7.125-7.123,7.125
	c-2.604,0-5.209-2.606-5.209-7.762c0-1.329,0-2.287,0.319-3.562c8.771-50.293,22.062-103.456,40.243-160.55
	c2.551-8.719,10.367-12.971,18.448-12.971c8.452,0,16.533,5.21,16.533,14.939c0,2.923-0.639,6.166-1.913,9.41
	C596.421,246.179,576.008,291.259,559.793,341.496z"/>
</svg>
