<?xml version="1.0" encoding="utf-8"?>
<!-- Generator: Adobe Illustrator 14.0.0, SVG Export Plug-In . SVG Version: 6.00 Build 43363)  -->
<!DOCTYPE svg PUBLIC "-//W3C//DTD SVG 1.1//EN" "http://www.w3.org/Graphics/SVG/1.1/DTD/svg11.dtd">
<svg version="1.1" id="Layer_1" xmlns="http://www.w3.org/2000/svg" xmlns:xlink="http://www.w3.org/1999/xlink" x="0px" y="0px"
	 width="841.89px" height="595.28px" viewBox="0 0 841.89 595.28" enable-background="new 0 0 841.89 595.28" xml:space="preserve">
<path fill-rule="evenodd" clip-rule="evenodd" d="M284.425,49.825v497.409c0,25.666,15.601,41.266,41.266,41.266h192.538
	c25.665,0,41.265-15.6,41.265-41.266V49.825c0-25.665-15.601-41.265-41.265-41.265H325.69
	C300.026,8.56,284.425,24.16,284.425,49.825z M397.321,45.229c0-2.052,1.375-3.427,3.427-3.427h42.423
	c2.051,0,3.427,1.375,3.427,3.427c0,1.892-1.376,3.428-3.427,3.428h-42.423C398.696,48.656,397.321,47.12,397.321,45.229z
	 M416.234,27.473c0-1.582,1.272-2.866,2.866-2.866c1.582,0,2.854,1.284,2.854,2.866s-1.271,2.866-2.854,2.866
	C417.506,30.339,416.234,29.055,416.234,27.473z M400.186,542.661c0-12.036,9.744-21.779,21.767-21.779
	c12.037,0,21.779,9.743,21.779,21.779c0,12.024-9.743,21.768-21.779,21.768C409.93,564.429,400.186,554.685,400.186,542.661z
	 M301.045,75.043h241.828v419.474H301.045V75.043z"/>
<path fill-rule="evenodd" clip-rule="evenodd" d="M404.771,542.661c0-9.502,7.691-17.194,17.182-17.194
	c9.503,0,17.194,7.692,17.194,17.194c0,9.491-7.691,17.183-17.194,17.183C412.463,559.843,404.771,552.152,404.771,542.661z"/>
</svg>
