<?xml version="1.0" encoding="utf-8"?>
<!-- Generator: Adobe Illustrator 14.0.0, SVG Export Plug-In . SVG Version: 6.00 Build 43363)  -->
<!DOCTYPE svg PUBLIC "-//W3C//DTD SVG 1.1//EN" "http://www.w3.org/Graphics/SVG/1.1/DTD/svg11.dtd">
<svg version="1.1" id="Layer_1" xmlns="http://www.w3.org/2000/svg" xmlns:xlink="http://www.w3.org/1999/xlink" x="0px" y="0px"
	 width="275px" height="529px" viewBox="0 0 275 529" enable-background="new 0 0 275 529" xml:space="preserve">
<g>
	<path d="M234.283,0.92H41.746C16.082,0.92,0.48,16.52,0.48,42.185v446.404c0,25.666,15.602,41.266,41.267,41.266h192.537
		c25.666,0,41.266-15.6,41.266-41.266V42.185C275.549,16.52,259.947,0.92,234.283,0.92z M135.155,16.967
		c1.582,0,2.855,1.284,2.855,2.866s-1.272,2.866-2.855,2.866c-1.594,0-2.865-1.284-2.865-2.866S133.561,16.967,135.155,16.967z
		 M116.803,34.162h42.423c2.051,0,3.426,1.375,3.426,3.427c0,1.892-1.375,3.428-3.426,3.428h-42.423
		c-2.052-0.001-3.427-1.537-3.427-3.428C113.376,35.537,114.751,34.162,116.803,34.162z M138.008,505.784
		c-12.023,0-21.767-9.744-21.767-21.768c0-12.037,9.744-21.779,21.767-21.779c12.037,0,21.779,9.742,21.779,21.779
		C159.787,496.04,150.045,505.784,138.008,505.784z M258.928,435.872H17.1V67.403h241.828V435.872z"/>
	<path d="M138.008,466.821c-9.491,0-17.181,7.693-17.181,17.195c0,9.49,7.691,17.182,17.181,17.182
		c9.504,0,17.195-7.691,17.195-17.182C155.203,474.515,147.512,466.821,138.008,466.821z"/>
</g>
</svg>
