<?xml version="1.0" encoding="utf-8"?>
<!-- Generator: Adobe Illustrator 14.0.0, SVG Export Plug-In . SVG Version: 6.00 Build 43363)  -->
<!DOCTYPE svg PUBLIC "-//W3C//DTD SVG 1.1//EN" "http://www.w3.org/Graphics/SVG/1.1/DTD/svg11.dtd">
<svg version="1.1" id="Layer_1" xmlns="http://www.w3.org/2000/svg" xmlns:xlink="http://www.w3.org/1999/xlink" x="0px" y="0px"
	 width="841.89px" height="595.28px" viewBox="0 0 841.89 595.28" enable-background="new 0 0 841.89 595.28" xml:space="preserve">
<path fill-rule="evenodd" clip-rule="evenodd" d="M147.02,299.528c0,151.289,123.789,273.972,276.518,273.972
	c152.729,0,276.519-122.683,276.519-273.972c0-151.335-123.789-274.019-276.519-274.019
	C270.809,25.51,147.02,148.193,147.02,299.528z M425.076,174.491c-70.235,0-127.106,56.39-127.106,125.953
	c0,69.562,56.871,125.905,127.106,125.905c38.7,0,73.361-17.115,96.677-44.179H406.713v-63.554H620.59l-2.883,6.009h1.394
	c-12.018,95.619-94.32,169.555-194.025,169.555c-108.02,0-195.562-86.725-195.562-193.735c0-107.012,87.542-193.784,195.562-193.784
	c67.255,0,126.577,33.652,161.769,84.896l-65.141,27.067C498.388,191.604,463.728,174.491,425.076,174.491z"/>
</svg>
