<?xml version="1.0" encoding="utf-8"?>
<!-- Generator: Adobe Illustrator 14.0.0, SVG Export Plug-In . SVG Version: 6.00 Build 43363)  -->
<!DOCTYPE svg PUBLIC "-//W3C//DTD SVG 1.1//EN" "http://www.w3.org/Graphics/SVG/1.1/DTD/svg11.dtd">
<svg version="1.1" id="Layer_1" xmlns="http://www.w3.org/2000/svg" xmlns:xlink="http://www.w3.org/1999/xlink" x="0px" y="0px"
	 width="841.89px" height="595.28px" viewBox="0 0 841.89 595.28" enable-background="new 0 0 841.89 595.28" xml:space="preserve">
<path fill-rule="evenodd" clip-rule="evenodd" d="M45.884,80.021V513.83c0,28.933,6.237,35.17,35.17,35.17h679.043
	c28.92,0,35.157-6.237,35.157-35.17V80.021c0-28.933-6.237-35.17-35.157-35.17H81.054C52.121,44.851,45.884,51.088,45.884,80.021z
	 M74.518,296.932c0-2.751,2.229-4.98,4.98-4.98s4.98,2.229,4.98,4.98c0,2.739-2.229,4.967-4.98,4.967S74.518,299.67,74.518,296.932z
	 M740.488,296.932c0-12.039,9.748-21.787,21.787-21.787c12.026,0,21.787,9.748,21.787,21.787c0,12.026-9.761,21.774-21.787,21.774
	C750.236,318.706,740.488,308.958,740.488,296.932z M105.63,89.669h621.163v417.002H105.63V89.669z"/>
<circle cx="762.094" cy="297.25" r="18.407"/>
</svg>
